<svg xmlns="http://www.w3.org/2000/svg" viewBox="0 0 76 76" width="76" height="76" preserveAspectRatio="xMidYMid meet" style="width: 100%; height: 100%; transform: translate3d(0px, 0px, 0px);"><defs><clipPath id="__lottie_element_287"><rect width="76" height="76" x="0" y="0"></rect></clipPath><clipPath id="__lottie_element_289"><path d="M0,0 L500,0 L500,500 L0,500z"></path></clipPath></defs><g clip-path="url(#__lottie_element_287)"><g clip-path="url(#__lottie_element_289)" transform="matrix(0.18000000715255737,0,0,0.18000000715255737,-6.75,-7)" opacity="1" style="display: block;"><g transform="matrix(1,0,0,1,253,247)" opacity="1" style="display: block;"><g opacity="1" transform="matrix(1,0,0,1,-3,3)"><path stroke-linecap="butt" stroke-linejoin="miter" fill-opacity="0" stroke-miterlimit="4" stroke="rgb(241,101,72)" stroke-opacity="1" stroke-width="10" d=" M-117.53800201416016,-161.78799438476562 C-114.15499877929688,-164.25100708007812 -110.69200134277344,-166.61099243164062 -107.15399932861328,-168.86199951171875"></path></g><g opacity="1" transform="matrix(1,0,0,1,-3,3)"><path stroke-linecap="butt" stroke-linejoin="miter" fill-opacity="0" stroke-miterlimit="4" stroke="rgb(241,101,72)" stroke-opacity="1" stroke-width="10" d=" M-198.4409942626953,25.069000244140625 C-199.47000122070312,16.85700035095215 -200,8.489999771118164 -200,0 C-200,-48.417999267578125 -182.75599670410156,-92.84200286865234 -154.07899475097656,-127.45999908447266"></path></g><g opacity="1" transform="matrix(1,0,0,1,-3,3)"><path stroke-linecap="butt" stroke-linejoin="miter" fill-opacity="0" stroke-miterlimit="4" stroke="rgb(241,101,72)" stroke-opacity="1" stroke-width="10" d=" M-180.98800659179688,85.15799713134766 C-188.05099487304688,70.18699645996094 -193.31100463867188,54.20100021362305 -196.48699951171875,37.48099899291992"></path></g><g opacity="1" transform="matrix(1,0,0,1,-3,3)"><path stroke-linecap="butt" stroke-linejoin="miter" fill-opacity="0" stroke-miterlimit="4" stroke="rgb(241,101,72)" stroke-opacity="1" stroke-width="10" d=" M-37.48099899291992,196.48699951171875 C-41.6150016784668,195.70199584960938 -45.70500183105469,194.78900146484375 -49.744998931884766,193.7530059814453"></path></g><g opacity="1" transform="matrix(1,0,0,1,-3,3)"><path stroke-linecap="butt" stroke-linejoin="miter" fill-opacity="0" stroke-miterlimit="4" stroke="rgb(241,101,72)" stroke-opacity="1" stroke-width="10" d=" M145.76600646972656,136.88099670410156 C109.27200317382812,175.7239990234375 57.448001861572266,200 0,200 C0,200 0,200 0,200"></path></g><g opacity="1" transform="matrix(1,0,0,1,-3,3)"><path stroke-linecap="butt" stroke-linejoin="miter" fill-opacity="0" stroke-miterlimit="4" stroke="rgb(241,101,72)" stroke-opacity="1" stroke-width="10" d=" M180.98800659179688,85.15799713134766 C173.79200744628906,100.41100311279297 164.72300720214844,114.61100006103516 154.07899475097656,127.45999908447266"></path></g><g opacity="1" transform="matrix(1,0,0,1,-3,3)"><path stroke-linecap="butt" stroke-linejoin="miter" fill-opacity="0" stroke-miterlimit="4" stroke="rgb(241,101,72)" stroke-opacity="1" stroke-width="10" d=" M180.98800659179688,-85.15799713134766 C182.77099609375,-81.37899780273438 184.43899536132812,-77.53500366210938 185.98800659179688,-73.63099670410156"></path></g><g opacity="1" transform="matrix(1,0,0,1,-3,3)"><path stroke-linecap="butt" stroke-linejoin="miter" fill-opacity="0" stroke-miterlimit="4" stroke="rgb(241,101,72)" stroke-opacity="1" stroke-width="10" d=" M0,-200 C66.47000122070312,-200 125.41200256347656,-167.5 161.78799438476562,-117.53800201416016"></path></g></g><g transform="matrix(1,0,0,1,253,247)" opacity="1" style="display: block;"><g opacity="1" transform="matrix(1,0,0,1,-3,3)"><path stroke-linecap="butt" stroke-linejoin="miter" fill-opacity="0" stroke-miterlimit="4" stroke="rgb(241,101,72)" stroke-opacity="1" stroke-width="1" d=" M0,-195 C107.62049865722656,-195 195,-107.62049865722656 195,0 C195,107.62049865722656 107.62049865722656,195 0,195 C-107.62049865722656,195 -195,107.62049865722656 -195,0 C-195,-107.62049865722656 -107.62049865722656,-195 0,-195z"></path></g></g></g><g class="png" transform="matrix(0.5,0,0,0.5,8,8)" opacity="0.8571428571428572" style="display: block;"><image width="120px" height="120px" preserveAspectRatio="xMidYMid slice" xmlns:xlink="http://www.w3.org/1999/xlink" xlink:href="/Users/user/Desktop/警告灯动效更新/方案1/images/img_0.png"></image></g></g></svg>