<svg xmlns="http://www.w3.org/2000/svg" viewBox="0 0 76 76" width="76" height="76" preserveAspectRatio="xMidYMid meet" style="width: 100%; height: 100%; transform: translate3d(0px, 0px, 0px);"><defs><clipPath id="__lottie_element_680"><rect width="76" height="76" x="0" y="0"></rect></clipPath><clipPath id="__lottie_element_682"><path d="M0,0 L500,0 L500,500 L0,500z"></path></clipPath><filter id="__lottie_element_687" filterUnits="objectBoundingBox" x="-100%" y="-100%" width="300%" height="300%"><feGaussianBlur stdDeviation="11.7 11.7" edgeMode="duplicate"></feGaussianBlur></filter></defs><g clip-path="url(#__lottie_element_680)"><g clip-path="url(#__lottie_element_682)" transform="matrix(0.18000000715255737,0,0,0.18000000715255737,-6.75,-7)" opacity="1" style="display: block;"><g transform="matrix(1,0,0,1,250,250)" opacity="1" style="display: block;"><g opacity="1" transform="matrix(1,0,0,1,0,0)"><path stroke-linecap="butt" stroke-linejoin="miter" fill-opacity="0" stroke-miterlimit="4" stroke="rgb(241,101,72)" stroke-opacity="1" stroke-width="1" d=" M0,-195 C107.62049865722656,-195 195,-107.62049865722656 195,0 C195,107.62049865722656 107.62049865722656,195 0,195 C-107.62049865722656,195 -195,107.62049865722656 -195,0 C-195,-107.62049865722656 -107.62049865722656,-195 0,-195z"></path></g></g><g transform="matrix(1,0,0,1,250,250)" opacity="1" style="display: block;"><g opacity="1" transform="matrix(0.8999999761581421,0,0,0.8999999761581421,0.3240000009536743,0.6880000233650208)"><path stroke-linecap="butt" stroke-linejoin="round" fill-opacity="0" stroke-dasharray=" 198 28.859067091679314 10" stroke-dashoffset="0" stroke="rgb(241,101,72)" stroke-opacity="1" stroke-width="10" d=" M0,-221.75 C122.38382720947266,-221.75 221.75,-122.38382720947266 221.75,0 C221.75,122.38382720947266 122.38382720947266,221.75 0,221.75 C-122.38382720947266,221.75 -221.75,122.38382720947266 -221.75,0 C-221.75,-122.38382720947266 -122.38382720947266,-221.75 0,-221.75z"></path></g></g></g><g filter="url(#__lottie_element_687)" transform="matrix(1,0,0,1,38,38)" opacity="0.8571428571428572" style="display: block;"><g opacity="1" transform="matrix(1,0,0,1,-0.5,0)"><path fill="rgb(241,101,72)" fill-opacity="1" d=" M0,-10.887499809265137 C6.008810997009277,-10.887499809265137 10.887499809265137,-6.008810997009277 10.887499809265137,0 C10.887499809265137,6.008810997009277 6.008810997009277,10.887499809265137 0,10.887499809265137 C-6.008810997009277,10.887499809265137 -10.887499809265137,6.008810997009277 -10.887499809265137,0 C-10.887499809265137,-6.008810997009277 -6.008810997009277,-10.887499809265137 0,-10.887499809265137z"></path></g><g opacity="1" transform="matrix(1,0,0,1,-0.5,-2.5)"><path fill="rgb(255,255,255)" fill-opacity="1" d=" M1.5,-4.5 C1.5,-4.5 1.5,4.5 1.5,4.5 C1.5,4.5 -1.5,4.5 -1.5,4.5 C-1.5,4.5 -1.5,-4.5 -1.5,-4.5 C-1.5,-4.5 1.5,-4.5 1.5,-4.5z"></path></g><g opacity="1" transform="matrix(1,0,0,1,-0.5,5.5)"><path fill="rgb(255,255,255)" fill-opacity="1" d=" M1.5,-1.5 C1.5,-1.5 1.5,1.5 1.5,1.5 C1.5,1.5 -1.5,1.5 -1.5,1.5 C-1.5,1.5 -1.5,-1.5 -1.5,-1.5 C-1.5,-1.5 1.5,-1.5 1.5,-1.5z"></path></g></g><g transform="matrix(1,0,0,1,38,38)" opacity="0.8571428571428572" style="display: block;"><g opacity="1" transform="matrix(1,0,0,1,-0.5,0)"><path fill="rgb(241,101,72)" fill-opacity="1" d=" M0,-10.887499809265137 C6.008810997009277,-10.887499809265137 10.887499809265137,-6.008810997009277 10.887499809265137,0 C10.887499809265137,6.008810997009277 6.008810997009277,10.887499809265137 0,10.887499809265137 C-6.008810997009277,10.887499809265137 -10.887499809265137,6.008810997009277 -10.887499809265137,0 C-10.887499809265137,-6.008810997009277 -6.008810997009277,-10.887499809265137 0,-10.887499809265137z"></path></g><g opacity="1" transform="matrix(1,0,0,1,-0.5,-2.5)"><path fill="rgb(255,255,255)" fill-opacity="1" d=" M1.5,-4.5 C1.5,-4.5 1.5,4.5 1.5,4.5 C1.5,4.5 -1.5,4.5 -1.5,4.5 C-1.5,4.5 -1.5,-4.5 -1.5,-4.5 C-1.5,-4.5 1.5,-4.5 1.5,-4.5z"></path></g><g opacity="1" transform="matrix(1,0,0,1,-0.5,5.5)"><path fill="rgb(255,255,255)" fill-opacity="1" d=" M1.5,-1.5 C1.5,-1.5 1.5,1.5 1.5,1.5 C1.5,1.5 -1.5,1.5 -1.5,1.5 C-1.5,1.5 -1.5,-1.5 -1.5,-1.5 C-1.5,-1.5 1.5,-1.5 1.5,-1.5z"></path></g></g></g></svg>